# xmcd
#
# Track frame offsets:
#	151
#	20447
#	36359
#	53842
#	75318
#	91097
#	110301
#	135744
#	158435
#	181497
#	198091
#	223202
#
# Disc length: 3314 seconds
#
# Revision: 0
# Processed by: cddbd v1.5.2PL0 Copyright (c) Steve Scherf et al.
# Submitted via: EasyCDDAExtractor 2010.4.0.0
#
DISCID=920cf00c
DTITLE=Murphy Richard and the Zydeco Kings - Doin' the Zydeco
DYEAR=1999
DGENRE=zydeco
TTITLE0=Murphy doin' the zydeco
TTITLE1=Let me pass through your window
TTITLE2=Madeline's waltz
TTITLE3=After loving you
TTITLE4=Don't let the green grass fool you
TTITLE5=Let's go to Grand Coteau
TTITLE6=Got a sweet little woman
TTITLE7=Why you wanna make me cry
TTITLE8=Trouble don't last
TTITLE9=Everybody let's get down
TTITLE10=I'm coming home
TTITLE11=Let me take you home
EXTD=
EXTT0=
EXTT1=
EXTT2=
EXTT3=
EXTT4=
EXTT5=
EXTT6=
EXTT7=
EXTT8=
EXTT9=
EXTT10=
EXTT11=
PLAYORDER=
